<svg width="656" height="130" viewBox="0 0 656 130" fill="none" xmlns="http://www.w3.org/2000/svg">
<path d="M199.294 56.1379H187.967V87.9879H180.978V56.1379H169.651V50.3919H199.294V56.1379ZM211.225 55.9559V66.3819H224.371V71.7639H211.225V82.3979H227.904V87.9879H204.21V50.3919H227.904V55.9559H211.225ZM253.946 73.7919L249.374 61.2859C249.148 60.7311 248.915 60.0724 248.672 59.3099C248.43 58.5471 248.187 57.7239 247.945 56.8399C247.719 57.7239 247.486 58.5559 247.243 59.3359C247.001 60.0983 246.767 60.7659 246.542 61.3379L241.995 73.7919H253.946ZM266.287 87.9879H260.883C260.277 87.9879 259.783 87.8404 259.402 87.5459C259.021 87.2339 258.735 86.8523 258.545 86.4019L255.739 78.7319H240.177L237.371 86.4019C237.232 86.8003 236.964 87.1643 236.566 87.4939C236.167 87.8231 235.673 87.9879 235.085 87.9879H229.629L244.412 50.3919H251.53L266.287 87.9879ZM310.912 50.3919V87.9879H304.755V63.7039C304.755 62.7331 304.807 61.6843 304.911 60.5579L293.558 81.9039C293.021 82.9263 292.198 83.4379 291.09 83.4379H290.102C288.994 83.4379 288.171 82.9263 287.634 81.9039L276.151 60.4799C276.203 61.0519 276.246 61.6151 276.281 62.1699C276.315 62.7243 276.333 63.2359 276.333 63.7039V87.9879H270.175V50.3919H275.449C275.761 50.3919 276.029 50.4003 276.255 50.4179C276.48 50.4351 276.679 50.4783 276.852 50.5479C277.043 50.6171 277.207 50.7299 277.346 50.8859C277.502 51.0419 277.649 51.2499 277.788 51.5099L289.037 72.3879C289.331 72.9423 289.6 73.5144 289.842 74.1039C290.102 74.6931 290.353 75.2999 290.596 75.9239C290.838 75.2823 291.09 74.6671 291.349 74.0779C291.609 73.4711 291.886 72.8903 292.181 72.3359L303.274 51.5099C303.413 51.2499 303.56 51.0419 303.716 50.8859C303.872 50.7299 304.036 50.6171 304.21 50.5479C304.4 50.4783 304.608 50.4351 304.833 50.4179C305.058 50.4003 305.327 50.3919 305.638 50.3919H310.912ZM365.288 69.1899C365.288 71.9459 364.83 74.4763 363.911 76.7819C362.992 79.0871 361.703 81.0719 360.04 82.7359C358.377 84.3999 356.377 85.6911 354.039 86.6099C351.7 87.5283 349.102 87.9879 346.245 87.9879H331.929V50.3919H346.245C349.102 50.3919 351.7 50.8599 354.039 51.7959C356.377 52.7143 358.377 54.0059 360.04 55.6699C361.703 57.3163 362.992 59.2923 363.911 61.5979C364.83 63.9031 365.288 66.4339 365.288 69.1899ZM358.117 69.1899C358.117 67.1271 357.841 65.2811 357.286 63.6519C356.75 62.0051 355.961 60.6184 354.922 59.4919C353.899 58.3479 352.652 57.4723 351.181 56.8659C349.726 56.2591 348.079 55.9559 346.245 55.9559H338.944V82.4239H346.245C348.079 82.4239 349.726 82.1203 351.181 81.5139C352.652 80.9071 353.899 80.0403 354.922 78.9139C355.961 77.7699 356.75 76.3831 357.286 74.7539C357.841 73.1071 358.117 71.2523 358.117 69.1899ZM390.138 73.7919L385.566 61.2859C385.341 60.7311 385.108 60.0724 384.864 59.3099C384.624 58.5471 384.38 57.7239 384.137 56.8399C383.913 57.7239 383.679 58.5559 383.435 59.3359C383.195 60.0983 382.961 60.7659 382.734 61.3379L378.187 73.7919H390.138ZM402.479 87.9879H397.075C396.471 87.9879 395.977 87.8404 395.594 87.5459C395.214 87.2339 394.928 86.8523 394.737 86.4019L391.931 78.7319H376.369L373.563 86.4019C373.426 86.8003 373.157 87.1643 372.757 87.4939C372.361 87.8231 371.867 87.9879 371.276 87.9879H365.821L380.603 50.3919H387.722L402.479 87.9879ZM426.374 57.2299C426.166 57.5939 425.939 57.8624 425.698 58.0359C425.471 58.1919 425.185 58.2699 424.841 58.2699C424.477 58.2699 424.078 58.1399 423.646 57.8799C423.23 57.6023 422.727 57.2991 422.139 56.9699C421.548 56.6403 420.856 56.3459 420.061 56.0859C419.281 55.8083 418.353 55.6699 417.281 55.6699C416.31 55.6699 415.462 55.7911 414.735 56.0339C414.007 56.2591 413.39 56.5799 412.89 56.9959C412.403 57.4119 412.039 57.9143 411.799 58.5039C411.555 59.0759 411.435 59.7083 411.435 60.4019C411.435 61.2859 411.676 62.0223 412.163 62.6119C412.663 63.2011 413.322 63.7039 414.137 64.1199C414.949 64.5359 415.878 64.9083 416.917 65.2379C417.956 65.5671 419.022 65.9223 420.113 66.3039C421.204 66.6679 422.269 67.1011 423.308 67.6039C424.348 68.0891 425.273 68.7131 426.088 69.4759C426.9 70.2211 427.55 71.1399 428.037 72.2319C428.537 73.3239 428.79 74.6499 428.79 76.2099C428.79 77.9083 428.495 79.5031 427.907 80.9939C427.335 82.4671 426.484 83.7583 425.361 84.8679C424.25 85.9599 422.893 86.8263 421.282 87.4679C419.671 88.0919 417.826 88.4039 415.748 88.4039C414.553 88.4039 413.374 88.2823 412.215 88.0399C411.052 87.8143 409.935 87.4851 408.863 87.0519C407.805 86.6183 406.811 86.0984 405.876 85.4919C404.94 84.8851 404.109 84.2091 403.381 83.4639L405.434 80.1099C405.606 79.8671 405.83 79.6679 406.109 79.5119C406.385 79.3383 406.681 79.2519 406.993 79.2519C407.425 79.2519 407.892 79.4339 408.396 79.7979C408.896 80.1443 409.493 80.5343 410.188 80.9679C410.88 81.4011 411.685 81.7999 412.604 82.1639C413.54 82.5103 414.657 82.6839 415.956 82.6839C417.947 82.6839 419.489 82.2159 420.58 81.2799C421.672 80.3263 422.217 78.9659 422.217 77.1979C422.217 76.2099 421.964 75.4039 421.464 74.7799C420.977 74.1559 420.327 73.6359 419.515 73.2199C418.7 72.7863 417.775 72.4223 416.735 72.1279C415.696 71.8331 414.637 71.5123 413.566 71.1659C412.491 70.8191 411.435 70.4031 410.396 69.9179C409.357 69.4324 408.428 68.7999 407.616 68.0199C406.801 67.2399 406.142 66.2691 405.642 65.1079C405.155 63.9291 404.914 62.4819 404.914 60.7659C404.914 59.3964 405.181 58.0619 405.72 56.7619C406.272 55.4619 407.071 54.3091 408.11 53.3039C409.149 52.2983 410.429 51.4923 411.955 50.8859C413.478 50.2791 415.228 49.9759 417.203 49.9759C419.418 49.9759 421.464 50.3223 423.334 51.0159C425.205 51.7091 426.796 52.6799 428.115 53.9279L426.374 57.2299ZM466.556 50.3919V87.9879H459.541V71.5559H441.9V87.9879H434.886V50.3919H441.9V66.5639H459.541V50.3919H466.556ZM488.976 82.5279C490.275 82.5279 491.367 82.3719 492.25 82.0599C493.133 81.7479 493.835 81.3319 494.354 80.8119C494.89 80.2919 495.273 79.6851 495.497 78.9919C495.741 78.2984 495.861 77.5619 495.861 76.7819C495.861 75.9671 495.731 75.2391 495.472 74.5979C495.212 73.9391 494.806 73.3843 494.25 72.9339C493.695 72.4659 492.977 72.1103 492.094 71.8679C491.227 71.6251 490.181 71.5039 488.951 71.5039H481.91V82.5279H488.976ZM481.91 55.7999V66.6679H487.47C489.86 66.6679 491.662 66.2343 492.873 65.3679C494.104 64.5011 494.718 63.1231 494.718 61.2339C494.718 59.2751 494.163 57.8799 493.055 57.0479C491.948 56.2159 490.214 55.7999 487.859 55.7999H481.91ZM487.859 50.3919C490.318 50.3919 492.422 50.6259 494.173 51.0939C495.923 51.5619 497.352 52.2291 498.459 53.0959C499.586 53.9623 500.408 55.0111 500.927 56.2419C501.447 57.4724 501.707 58.8591 501.707 60.4019C501.707 61.2859 501.577 62.1351 501.317 62.9499C501.057 63.7471 500.651 64.5011 500.096 65.2119C499.56 65.9051 498.865 66.5379 498.018 67.1099C497.186 67.6819 496.189 68.1671 495.03 68.5659C500.19 69.7271 502.772 72.5179 502.772 76.9379C502.772 78.5324 502.47 80.0059 501.863 81.3579C501.255 82.7099 500.372 83.8799 499.213 84.8679C498.053 85.8383 496.624 86.6011 494.926 87.1559C493.227 87.7103 491.289 87.9879 489.106 87.9879H474.921V50.3919H487.859ZM544.948 69.1899C544.948 71.9459 544.49 74.5023 543.571 76.8599C542.671 79.1999 541.388 81.2279 539.726 82.9439C538.063 84.6599 536.062 86.0031 533.724 86.9739C531.386 87.9271 528.788 88.4039 525.93 88.4039C523.092 88.4039 520.5 87.9271 518.162 86.9739C515.824 86.0031 513.817 84.6599 512.135 82.9439C510.472 81.2279 509.183 79.1999 508.264 76.8599C507.348 74.5023 506.887 71.9459 506.887 69.1899C506.887 66.4339 507.348 63.8859 508.264 61.5459C509.183 59.1884 510.472 57.1519 512.135 55.4359C513.817 53.7199 515.824 52.3851 518.162 51.4319C520.5 50.4611 523.092 49.9759 525.93 49.9759C527.836 49.9759 529.629 50.2011 531.308 50.6519C532.99 51.0851 534.53 51.7091 535.932 52.5239C537.335 53.3211 538.592 54.3004 539.7 55.4619C540.826 56.6059 541.778 57.8884 542.557 59.3099C543.337 60.7311 543.928 62.2739 544.324 63.9379C544.74 65.6019 544.948 67.3523 544.948 69.1899ZM537.803 69.1899C537.803 67.1271 537.527 65.2811 536.972 63.6519C536.42 62.0051 535.63 60.6099 534.607 59.4659C533.588 58.3219 532.341 57.4464 530.866 56.8399C529.411 56.2331 527.768 55.9299 525.93 55.9299C524.095 55.9299 522.442 56.2331 520.968 56.8399C519.513 57.4464 518.266 58.3219 517.227 59.4659C516.207 60.6099 515.418 62.0051 514.862 63.6519C514.31 65.2811 514.031 67.1271 514.031 69.1899C514.031 71.2523 514.31 73.1071 514.862 74.7539C515.418 76.3831 516.207 77.7699 517.227 78.9139C518.266 80.0403 519.513 80.9071 520.968 81.5139C522.442 82.1203 524.095 82.4239 525.93 82.4239C527.768 82.4239 529.411 82.1203 530.866 81.5139C532.341 80.9071 533.588 80.0403 534.607 78.9139C535.63 77.7699 536.42 76.3831 536.972 74.7539C537.527 73.1071 537.803 71.2523 537.803 69.1899ZM569.768 73.7919L565.196 61.2859C564.972 60.7311 564.738 60.0724 564.494 59.3099C564.251 58.5471 564.011 57.7239 563.767 56.8399C563.543 57.7239 563.309 58.5559 563.065 59.3359C562.822 60.0983 562.588 60.7659 562.364 61.3379L557.818 73.7919H569.768ZM582.109 87.9879H576.705C576.098 87.9879 575.604 87.8404 575.224 87.5459C574.844 87.2339 574.559 86.8523 574.367 86.4019L571.561 78.7319H555.999L553.193 86.4019C553.053 86.8003 552.787 87.1643 552.388 87.4939C551.988 87.8231 551.495 87.9879 550.907 87.9879H545.451L560.234 50.3919H567.352L582.109 87.9879ZM597.35 68.2799C598.668 68.2799 599.811 68.1151 600.779 67.7859C601.766 67.4564 602.572 67.0059 603.195 66.4339C603.838 65.8443 604.312 65.1511 604.624 64.3539C604.936 63.5564 605.092 62.6811 605.092 61.7279C605.092 59.8211 604.462 58.3563 603.195 57.3339C601.948 56.3111 600.035 55.7999 597.454 55.7999H592.985V68.2799H597.35ZM615.328 87.9879H609.015C607.82 87.9879 606.956 87.5199 606.417 86.5839L598.519 74.5459C598.226 74.0951 597.895 73.7743 597.531 73.5839C597.187 73.3931 596.668 73.2979 595.973 73.2979H592.985V87.9879H585.996V50.3919H597.454C600 50.3919 602.182 50.6603 604.001 51.1979C605.839 51.7179 607.336 52.4544 608.495 53.4079C609.674 54.3611 610.541 55.5051 611.093 56.8399C611.648 58.1571 611.924 59.6131 611.924 61.2079C611.924 62.4731 611.736 63.6691 611.353 64.7959C610.989 65.9224 610.453 66.9451 609.742 67.8639C609.05 68.7824 608.183 69.5883 607.144 70.2819C606.124 70.9751 604.955 71.5211 603.637 71.9199C604.088 72.1799 604.504 72.4919 604.884 72.8559C605.267 73.2023 605.611 73.6184 605.923 74.1039L615.328 87.9879ZM652.746 69.1899C652.746 71.9459 652.285 74.4763 651.369 76.7819C650.45 79.0871 649.161 81.0719 647.498 82.7359C645.835 84.3999 643.835 85.6911 641.496 86.6099C639.158 87.5283 636.56 87.9879 633.702 87.9879H619.387V50.3919H633.702C636.56 50.3919 639.158 50.8599 641.496 51.7959C643.835 52.7143 645.835 54.0059 647.498 55.6699C649.161 57.3163 650.45 59.2923 651.369 61.5979C652.285 63.9031 652.746 66.4339 652.746 69.1899ZM645.575 69.1899C645.575 67.1271 645.296 65.2811 644.744 63.6519C644.205 62.0051 643.419 60.6184 642.38 59.4919C641.357 58.3479 640.11 57.4723 638.639 56.8659C637.184 56.2591 635.537 55.9559 633.702 55.9559H626.402V82.4239H633.702C635.537 82.4239 637.184 82.1203 638.639 81.5139C640.11 80.9071 641.357 80.0403 642.38 78.9139C643.419 77.7699 644.205 76.3831 644.744 74.7539C645.296 73.1071 645.575 71.2523 645.575 69.1899Z" fill="#F1F1F1"/>
<path d="M64.9505 130C100.822 130 129.901 100.899 129.901 65C129.901 29.1015 100.822 0 64.9505 0C29.0793 0 0 29.1015 0 65C0 100.899 29.0793 130 64.9505 130Z" fill="#E6C088"/>
<path d="M41.6345 99.9999V85.971H77.4791H99.9237C93.9492 94.6286 88.8841 99.8494 77.4791 99.9999H41.6345Z" fill="#040916"/>
<path d="M96.4862 79.1667C96.4862 79.1667 70.7792 89.1667 80.7715 64.1667C90.7638 39.1667 66.217 30 66.217 30C66.217 30 91.8345 38.4852 96.4862 51.8356C101.138 65.1856 96.4862 79.1667 96.4862 79.1667Z" fill="#040916"/>
<path d="M61.6195 30H41.6345V81.4772H61.6195V30Z" fill="#040916"/>
</svg>
